<svg xmlns="http://www.w3.org/2000/svg" width="22.696" height="22.696" viewBox="0 0 22.696 22.696">
  <path id="Icon_awesome-arrows-alt" data-name="Icon awesome-arrows-alt" d="M15.612,18.874,12.1,22.384a1.064,1.064,0,0,1-1.5,0L7.087,18.874a1.064,1.064,0,0,1,.752-1.816h2.268V12.589H5.638v2.268a1.064,1.064,0,0,1-1.816.752L.312,12.1a1.064,1.064,0,0,1,0-1.5L3.822,7.084a1.064,1.064,0,0,1,1.816.752v2.271h4.468V5.638H7.836a1.064,1.064,0,0,1-.752-1.816L10.594.312a1.064,1.064,0,0,1,1.5,0l3.511,3.511a1.064,1.064,0,0,1-.752,1.816H12.589v4.468h4.468V7.839a1.064,1.064,0,0,1,1.816-.752L22.384,10.6a1.064,1.064,0,0,1,0,1.5l-3.511,3.511a1.064,1.064,0,0,1-1.816-.752V12.589H12.589v4.468H14.86A1.064,1.064,0,0,1,15.612,18.874Z" fill="#96999c"/>
</svg>
