<svg xmlns="http://www.w3.org/2000/svg" width="10.002" height="16.003" viewBox="0 0 10.002 16.003">
  <g id="Group_2844" data-name="Group 2844" transform="translate(-1765.056 -729.778)">
    <path id="Icon_map-circle" data-name="Icon map-circle" d="M4.722,2.721a2,2,0,1,1-2-2,2,2,0,0,1,2,2Z" transform="translate(1764.336 729.058)" fill="#96999C"/>
    <path id="Icon_map-circle-2" data-name="Icon map-circle" d="M4.722,2.721a2,2,0,1,1-2-2,2,2,0,0,1,2,2Z" transform="translate(1764.336 735.058)" fill="#96999C"/>
    <path id="Icon_map-circle-3" data-name="Icon map-circle" d="M4.722,2.721a2,2,0,1,1-2-2,2,2,0,0,1,2,2Z" transform="translate(1764.336 741.058)" fill="#96999C"/>
    <path id="Icon_map-circle-4" data-name="Icon map-circle" d="M4.722,2.721a2,2,0,1,1-2-2,2,2,0,0,1,2,2Z" transform="translate(1770.336 729.058)" fill="#96999C"/>
    <path id="Icon_map-circle-5" data-name="Icon map-circle" d="M4.722,2.721a2,2,0,1,1-2-2,2,2,0,0,1,2,2Z" transform="translate(1770.336 735.058)" fill="#96999C"/>
    <path id="Icon_map-circle-6" data-name="Icon map-circle" d="M4.722,2.721a2,2,0,1,1-2-2,2,2,0,0,1,2,2Z" transform="translate(1770.336 741.058)" fill="#96999C"/>
  </g>
</svg>
